<?xml version="1.0" encoding="UTF-8"?><svg xmlns:svg="http://www.w3.org/2000/svg" xmlns="http://www.w3.org/2000/svg" xmlns:xlink="http://www.w3.org/1999/xlink" version="2.0" width="1200" height="2060" ><style >
svg {
  font-family: Helvetica, Arial, sans-serif;
  font-size: 11px;
}
rect {
  stroke-linecap: butt;
  stroke-width: 3;
  stroke: #fff;
/*  stroke-opacity: 1; */
}
rect:hover {
  stroke: #fff;
/*  stroke-opacity: 1; /*
}
polygon { fill: #000; }</style><defs ><polygon id="ahead" points="0 0, -12 4, -12 -4" /><filter id="glow" x="0" y="0" ><feGaussianBlur in="SourceAlpha" stdDeviation="2" result="blurred" /><feFlood flood-color="#fff" /><feComposite operator="in" in2="blurred" /><feComponentTransfer ><feFuncA type="linear" slope="10" intercept="0" /></feComponentTransfer><feMerge ><feMergeNode /><feMergeNode in="SourceGraphic" /></feMerge></filter></defs><g ><text x="60.0" y="20.0" text-anchor="middle" alignment-baseline="middle" fill="#000" >c10</text><text x="60.0" y="1020.0" text-anchor="middle" alignment-baseline="middle" fill="#aaa" >c10</text><text x="180.0" y="20.0" text-anchor="middle" alignment-baseline="middle" fill="#000" >c11</text><text x="180.0" y="1020.0" text-anchor="middle" alignment-baseline="middle" fill="#aaa" >c11</text><text x="300.0" y="20.0" text-anchor="middle" alignment-baseline="middle" fill="#000" >c12</text><text x="300.0" y="1020.0" text-anchor="middle" alignment-baseline="middle" fill="#aaa" >c12</text><text x="420.0" y="20.0" text-anchor="middle" alignment-baseline="middle" fill="#000" >c13</text><text x="420.0" y="1020.0" text-anchor="middle" alignment-baseline="middle" fill="#aaa" >c13</text><text x="540.0" y="20.0" text-anchor="middle" alignment-baseline="middle" fill="#000" >c14</text><text x="540.0" y="1020.0" text-anchor="middle" alignment-baseline="middle" fill="#aaa" >c14</text><text x="660.0" y="20.0" text-anchor="middle" alignment-baseline="middle" fill="#000" >n1</text><text x="660.0" y="1020.0" text-anchor="middle" alignment-baseline="middle" fill="#aaa" >n1</text><text x="780.0" y="20.0" text-anchor="middle" alignment-baseline="middle" fill="#000" >n2</text><text x="780.0" y="1020.0" text-anchor="middle" alignment-baseline="middle" fill="#aaa" >n2</text><text x="900.0" y="20.0" text-anchor="middle" alignment-baseline="middle" fill="#000" >n3</text><text x="900.0" y="1020.0" text-anchor="middle" alignment-baseline="middle" fill="#aaa" >n3</text><text x="1020.0" y="20.0" text-anchor="middle" alignment-baseline="middle" fill="#000" >n4</text><text x="1020.0" y="1020.0" text-anchor="middle" alignment-baseline="middle" fill="#aaa" >n4</text><text x="1140.0" y="20.0" text-anchor="middle" alignment-baseline="middle" fill="#000" >n5</text><text x="1140.0" y="1020.0" text-anchor="middle" alignment-baseline="middle" fill="#aaa" >n5</text></g><g ><line stroke="#ccc" x1="60.0" y1="30.0" x2="60.0" y2="1970.0" /><line stroke="#ccc" x1="180.0" y1="30.0" x2="180.0" y2="1970.0" /><line stroke="#ccc" x1="300.0" y1="30.0" x2="300.0" y2="1970.0" /><line stroke="#ccc" x1="420.0" y1="30.0" x2="420.0" y2="1970.0" /><line stroke="#ccc" x1="540.0" y1="30.0" x2="540.0" y2="1970.0" /><line stroke="#ccc" x1="660.0" y1="30.0" x2="660.0" y2="1970.0" /><line stroke="#ccc" x1="780.0" y1="30.0" x2="780.0" y2="1970.0" /><line stroke="#ccc" x1="900.0" y1="30.0" x2="900.0" y2="1970.0" /><line stroke="#ccc" x1="1020.0" y1="30.0" x2="1020.0" y2="1970.0" /><line stroke="#ccc" x1="1140.0" y1="30.0" x2="1140.0" y2="1970.0" /></g><g ><g transform="translate(60.0 50.0) rotate(1.193489423982035) " ><rect x="0" y="-2.5" height="5" width="956.2083107326243" fill="#81BFFC" ><title >c10 → n4 {:echo "Please echo 54", :type "echo", :msg_id 1}</title></rect><use xlink:href="#ahead" x="960.2083107326243" y="0" /><text text-anchor="middle" x="480.10415536631217" y="-4" transform="" filter="url(#glow)" style="fill: #fff" >echo {:echo "Please echo 54"}</text><text text-anchor="middle" x="480.10415536631217" y="-4" transform="" >echo {:echo "Please echo 54"}</text></g><g transform="translate(1020.0 90.0) rotate(178.80651057601798) " ><rect x="0" y="-2.5" height="5" width="956.2083107326243" fill="#81BFFC" ><title >n4 → c10 {:echo "Please echo 54", :type "echo_ok", :msg_id 1, :in_reply_to 1}</title></rect><use xlink:href="#ahead" x="960.2083107326243" y="0" /><text text-anchor="middle" x="480.10415536631217" y="-4" transform="rotate(180 480.10415536631217 0)" filter="url(#glow)" style="fill: #fff" >echo_ok {:echo "Please echo 54"}</text><text text-anchor="middle" x="480.10415536631217" y="-4" transform="rotate(180 480.10415536631217 0)" >echo_ok {:echo "Please echo 54"}</text></g><g transform="translate(180.0 130.0) rotate(1.193489423982035) " ><rect x="0" y="-2.5" height="5" width="956.2083107326243" fill="#81BFFC" ><title >c11 → n5 {:echo "Please echo 125", :type "echo", :msg_id 1}</title></rect><use xlink:href="#ahead" x="960.2083107326243" y="0" /><text text-anchor="middle" x="480.10415536631217" y="-4" transform="" filter="url(#glow)" style="fill: #fff" >echo {:echo "Please echo 125"}</text><text text-anchor="middle" x="480.10415536631217" y="-4" transform="" >echo {:echo "Please echo 125"}</text></g><g transform="translate(1140.0 170.0) rotate(178.80651057601798) " ><rect x="0" y="-2.5" height="5" width="956.2083107326243" fill="#81BFFC" ><title >n5 → c11 {:echo "Please echo 125", :type "echo_ok", :msg_id 1, :in_reply_to 1}</title></rect><use xlink:href="#ahead" x="960.2083107326243" y="0" /><text text-anchor="middle" x="480.10415536631217" y="-4" transform="rotate(180 480.10415536631217 0)" filter="url(#glow)" style="fill: #fff" >echo_ok {:echo "Please echo 125"}</text><text text-anchor="middle" x="480.10415536631217" y="-4" transform="rotate(180 480.10415536631217 0)" >echo_ok {:echo "Please echo 125"}</text></g><g transform="translate(300.0 210.0) rotate(3.179830119864234) " ><rect x="0" y="-2.5" height="5" width="356.5551275463989" fill="#81BFFC" ><title >c12 → n1 {:echo "Please echo 51", :type "echo", :msg_id 1}</title></rect><use xlink:href="#ahead" x="360.5551275463989" y="0" /><text text-anchor="middle" x="180.27756377319946" y="-4" transform="" filter="url(#glow)" style="fill: #fff" >echo {:echo "Please echo 51"}</text><text text-anchor="middle" x="180.27756377319946" y="-4" transform="" >echo {:echo "Please echo 51"}</text></g><g transform="translate(660.0 250.0) rotate(176.82016988013578) " ><rect x="0" y="-2.5" height="5" width="356.5551275463989" fill="#81BFFC" ><title >n1 → c12 {:echo "Please echo 51", :type "echo_ok", :msg_id 1, :in_reply_to 1}</title></rect><use xlink:href="#ahead" x="360.5551275463989" y="0" /><text text-anchor="middle" x="180.27756377319946" y="-4" transform="rotate(180 180.27756377319946 0)" filter="url(#glow)" style="fill: #fff" >echo_ok {:echo "Please echo 51"}</text><text text-anchor="middle" x="180.27756377319946" y="-4" transform="rotate(180 180.27756377319946 0)" >echo_ok {:echo "Please echo 51"}</text></g><g transform="translate(420.0 290.0) rotate(3.179830119864234) " ><rect x="0" y="-2.5" height="5" width="356.5551275463989" fill="#81BFFC" ><title >c13 → n2 {:echo "Please echo 19", :type "echo", :msg_id 1}</title></rect><use xlink:href="#ahead" x="360.5551275463989" y="0" /><text text-anchor="middle" x="180.27756377319946" y="-4" transform="" filter="url(#glow)" style="fill: #fff" >echo {:echo "Please echo 19"}</text><text text-anchor="middle" x="180.27756377319946" y="-4" transform="" >echo {:echo "Please echo 19"}</text></g><g transform="translate(780.0 330.0) rotate(176.82016988013578) " ><rect x="0" y="-2.5" height="5" width="356.5551275463989" fill="#81BFFC" ><title >n2 → c13 {:echo "Please echo 19", :type "echo_ok", :msg_id 1, :in_reply_to 1}</title></rect><use xlink:href="#ahead" x="360.5551275463989" y="0" /><text text-anchor="middle" x="180.27756377319946" y="-4" transform="rotate(180 180.27756377319946 0)" filter="url(#glow)" style="fill: #fff" >echo_ok {:echo "Please echo 19"}</text><text text-anchor="middle" x="180.27756377319946" y="-4" transform="rotate(180 180.27756377319946 0)" >echo_ok {:echo "Please echo 19"}</text></g><g transform="translate(420.0 370.0) rotate(3.179830119864234) " ><rect x="0" y="-2.5" height="5" width="356.5551275463989" fill="#81BFFC" ><title >c13 → n2 {:echo "Please echo 90", :type "echo", :msg_id 2}</title></rect><use xlink:href="#ahead" x="360.5551275463989" y="0" /><text text-anchor="middle" x="180.27756377319946" y="-4" transform="" filter="url(#glow)" style="fill: #fff" >echo {:echo "Please echo 90"}</text><text text-anchor="middle" x="180.27756377319946" y="-4" transform="" >echo {:echo "Please echo 90"}</text></g><g transform="translate(780.0 410.0) rotate(176.82016988013578) " ><rect x="0" y="-2.5" height="5" width="356.5551275463989" fill="#81BFFC" ><title >n2 → c13 {:echo "Please echo 90", :type "echo_ok", :msg_id 2, :in_reply_to 2}</title></rect><use xlink:href="#ahead" x="360.5551275463989" y="0" /><text text-anchor="middle" x="180.27756377319946" y="-4" transform="rotate(180 180.27756377319946 0)" filter="url(#glow)" style="fill: #fff" >echo_ok {:echo "Please echo 90"}</text><text text-anchor="middle" x="180.27756377319946" y="-4" transform="rotate(180 180.27756377319946 0)" >echo_ok {:echo "Please echo 90"}</text></g><g transform="translate(420.0 450.0) rotate(3.179830119864234) " ><rect x="0" y="-2.5" height="5" width="356.5551275463989" fill="#81BFFC" ><title >c13 → n2 {:echo "Please echo 126", :type "echo", :msg_id 3}</title></rect><use xlink:href="#ahead" x="360.5551275463989" y="0" /><text text-anchor="middle" x="180.27756377319946" y="-4" transform="" filter="url(#glow)" style="fill: #fff" >echo {:echo "Please echo 126"}</text><text text-anchor="middle" x="180.27756377319946" y="-4" transform="" >echo {:echo "Please echo 126"}</text></g><g transform="translate(780.0 490.0) rotate(176.82016988013578) " ><rect x="0" y="-2.5" height="5" width="356.5551275463989" fill="#81BFFC" ><title >n2 → c13 {:echo "Please echo 126", :type "echo_ok", :msg_id 3, :in_reply_to 3}</title></rect><use xlink:href="#ahead" x="360.5551275463989" y="0" /><text text-anchor="middle" x="180.27756377319946" y="-4" transform="rotate(180 180.27756377319946 0)" filter="url(#glow)" style="fill: #fff" >echo_ok {:echo "Please echo 126"}</text><text text-anchor="middle" x="180.27756377319946" y="-4" transform="rotate(180 180.27756377319946 0)" >echo_ok {:echo "Please echo 126"}</text></g><g transform="translate(540.0 530.0) rotate(3.179830119864234) " ><rect x="0" y="-2.5" height="5" width="356.5551275463989" fill="#81BFFC" ><title >c14 → n3 {:echo "Please echo 115", :type "echo", :msg_id 1}</title></rect><use xlink:href="#ahead" x="360.5551275463989" y="0" /><text text-anchor="middle" x="180.27756377319946" y="-4" transform="" filter="url(#glow)" style="fill: #fff" >echo {:echo "Please echo 115"}</text><text text-anchor="middle" x="180.27756377319946" y="-4" transform="" >echo {:echo "Please echo 115"}</text></g><g transform="translate(900.0 570.0) rotate(176.82016988013578) " ><rect x="0" y="-2.5" height="5" width="356.5551275463989" fill="#81BFFC" ><title >n3 → c14 {:echo "Please echo 115", :type "echo_ok", :msg_id 1, :in_reply_to 1}</title></rect><use xlink:href="#ahead" x="360.5551275463989" y="0" /><text text-anchor="middle" x="180.27756377319946" y="-4" transform="rotate(180 180.27756377319946 0)" filter="url(#glow)" style="fill: #fff" >echo_ok {:echo "Please echo 115"}</text><text text-anchor="middle" x="180.27756377319946" y="-4" transform="rotate(180 180.27756377319946 0)" >echo_ok {:echo "Please echo 115"}</text></g><g transform="translate(180.0 610.0) rotate(1.193489423982035) " ><rect x="0" y="-2.5" height="5" width="956.2083107326243" fill="#81BFFC" ><title >c11 → n5 {:echo "Please echo 98", :type "echo", :msg_id 2}</title></rect><use xlink:href="#ahead" x="960.2083107326243" y="0" /><text text-anchor="middle" x="480.10415536631217" y="-4" transform="" filter="url(#glow)" style="fill: #fff" >echo {:echo "Please echo 98"}</text><text text-anchor="middle" x="480.10415536631217" y="-4" transform="" >echo {:echo "Please echo 98"}</text></g><g transform="translate(1140.0 650.0) rotate(178.80651057601798) " ><rect x="0" y="-2.5" height="5" width="956.2083107326243" fill="#81BFFC" ><title >n5 → c11 {:echo "Please echo 98", :type "echo_ok", :msg_id 2, :in_reply_to 2}</title></rect><use xlink:href="#ahead" x="960.2083107326243" y="0" /><text text-anchor="middle" x="480.10415536631217" y="-4" transform="rotate(180 480.10415536631217 0)" filter="url(#glow)" style="fill: #fff" >echo_ok {:echo "Please echo 98"}</text><text text-anchor="middle" x="480.10415536631217" y="-4" transform="rotate(180 480.10415536631217 0)" >echo_ok {:echo "Please echo 98"}</text></g><g transform="translate(300.0 690.0) rotate(3.179830119864234) " ><rect x="0" y="-2.5" height="5" width="356.5551275463989" fill="#81BFFC" ><title >c12 → n1 {:echo "Please echo 15", :type "echo", :msg_id 2}</title></rect><use xlink:href="#ahead" x="360.5551275463989" y="0" /><text text-anchor="middle" x="180.27756377319946" y="-4" transform="" filter="url(#glow)" style="fill: #fff" >echo {:echo "Please echo 15"}</text><text text-anchor="middle" x="180.27756377319946" y="-4" transform="" >echo {:echo "Please echo 15"}</text></g><g transform="translate(660.0 730.0) rotate(176.82016988013578) " ><rect x="0" y="-2.5" height="5" width="356.5551275463989" fill="#81BFFC" ><title >n1 → c12 {:echo "Please echo 15", :type "echo_ok", :msg_id 2, :in_reply_to 2}</title></rect><use xlink:href="#ahead" x="360.5551275463989" y="0" /><text text-anchor="middle" x="180.27756377319946" y="-4" transform="rotate(180 180.27756377319946 0)" filter="url(#glow)" style="fill: #fff" >echo_ok {:echo "Please echo 15"}</text><text text-anchor="middle" x="180.27756377319946" y="-4" transform="rotate(180 180.27756377319946 0)" >echo_ok {:echo "Please echo 15"}</text></g><g transform="translate(180.0 770.0) rotate(1.193489423982035) " ><rect x="0" y="-2.5" height="5" width="956.2083107326243" fill="#81BFFC" ><title >c11 → n5 {:echo "Please echo 65", :type "echo", :msg_id 3}</title></rect><use xlink:href="#ahead" x="960.2083107326243" y="0" /><text text-anchor="middle" x="480.10415536631217" y="-4" transform="" filter="url(#glow)" style="fill: #fff" >echo {:echo "Please echo 65"}</text><text text-anchor="middle" x="480.10415536631217" y="-4" transform="" >echo {:echo "Please echo 65"}</text></g><g transform="translate(1140.0 810.0) rotate(178.80651057601798) " ><rect x="0" y="-2.5" height="5" width="956.2083107326243" fill="#81BFFC" ><title >n5 → c11 {:echo "Please echo 65", :type "echo_ok", :msg_id 3, :in_reply_to 3}</title></rect><use xlink:href="#ahead" x="960.2083107326243" y="0" /><text text-anchor="middle" x="480.10415536631217" y="-4" transform="rotate(180 480.10415536631217 0)" filter="url(#glow)" style="fill: #fff" >echo_ok {:echo "Please echo 65"}</text><text text-anchor="middle" x="480.10415536631217" y="-4" transform="rotate(180 480.10415536631217 0)" >echo_ok {:echo "Please echo 65"}</text></g><g transform="translate(420.0 850.0) rotate(3.179830119864234) " ><rect x="0" y="-2.5" height="5" width="356.5551275463989" fill="#81BFFC" ><title >c13 → n2 {:echo "Please echo 55", :type "echo", :msg_id 4}</title></rect><use xlink:href="#ahead" x="360.5551275463989" y="0" /><text text-anchor="middle" x="180.27756377319946" y="-4" transform="" filter="url(#glow)" style="fill: #fff" >echo {:echo "Please echo 55"}</text><text text-anchor="middle" x="180.27756377319946" y="-4" transform="" >echo {:echo "Please echo 55"}</text></g><g transform="translate(780.0 890.0) rotate(176.82016988013578) " ><rect x="0" y="-2.5" height="5" width="356.5551275463989" fill="#81BFFC" ><title >n2 → c13 {:echo "Please echo 55", :type "echo_ok", :msg_id 4, :in_reply_to 4}</title></rect><use xlink:href="#ahead" x="360.5551275463989" y="0" /><text text-anchor="middle" x="180.27756377319946" y="-4" transform="rotate(180 180.27756377319946 0)" filter="url(#glow)" style="fill: #fff" >echo_ok {:echo "Please echo 55"}</text><text text-anchor="middle" x="180.27756377319946" y="-4" transform="rotate(180 180.27756377319946 0)" >echo_ok {:echo "Please echo 55"}</text></g><g transform="translate(420.0 930.0) rotate(3.179830119864234) " ><rect x="0" y="-2.5" height="5" width="356.5551275463989" fill="#81BFFC" ><title >c13 → n2 {:echo "Please echo 6", :type "echo", :msg_id 5}</title></rect><use xlink:href="#ahead" x="360.5551275463989" y="0" /><text text-anchor="middle" x="180.27756377319946" y="-4" transform="" filter="url(#glow)" style="fill: #fff" >echo {:echo "Please echo 6"}</text><text text-anchor="middle" x="180.27756377319946" y="-4" transform="" >echo {:echo "Please echo 6"}</text></g><g transform="translate(780.0 970.0) rotate(176.82016988013578) " ><rect x="0" y="-2.5" height="5" width="356.5551275463989" fill="#81BFFC" ><title >n2 → c13 {:echo "Please echo 6", :type "echo_ok", :msg_id 5, :in_reply_to 5}</title></rect><use xlink:href="#ahead" x="360.5551275463989" y="0" /><text text-anchor="middle" x="180.27756377319946" y="-4" transform="rotate(180 180.27756377319946 0)" filter="url(#glow)" style="fill: #fff" >echo_ok {:echo "Please echo 6"}</text><text text-anchor="middle" x="180.27756377319946" y="-4" transform="rotate(180 180.27756377319946 0)" >echo_ok {:echo "Please echo 6"}</text></g><g transform="translate(420.0 1010.0) rotate(3.179830119864234) " ><rect x="0" y="-2.5" height="5" width="356.5551275463989" fill="#81BFFC" ><title >c13 → n2 {:echo "Please echo 58", :type "echo", :msg_id 6}</title></rect><use xlink:href="#ahead" x="360.5551275463989" y="0" /><text text-anchor="middle" x="180.27756377319946" y="-4" transform="" filter="url(#glow)" style="fill: #fff" >echo {:echo "Please echo 58"}</text><text text-anchor="middle" x="180.27756377319946" y="-4" transform="" >echo {:echo "Please echo 58"}</text></g><g transform="translate(780.0 1050.0) rotate(176.82016988013578) " ><rect x="0" y="-2.5" height="5" width="356.5551275463989" fill="#81BFFC" ><title >n2 → c13 {:echo "Please echo 58", :type "echo_ok", :msg_id 6, :in_reply_to 6}</title></rect><use xlink:href="#ahead" x="360.5551275463989" y="0" /><text text-anchor="middle" x="180.27756377319946" y="-4" transform="rotate(180 180.27756377319946 0)" filter="url(#glow)" style="fill: #fff" >echo_ok {:echo "Please echo 58"}</text><text text-anchor="middle" x="180.27756377319946" y="-4" transform="rotate(180 180.27756377319946 0)" >echo_ok {:echo "Please echo 58"}</text></g><g transform="translate(60.0 1090.0) rotate(1.193489423982035) " ><rect x="0" y="-2.5" height="5" width="956.2083107326243" fill="#81BFFC" ><title >c10 → n4 {:echo "Please echo 93", :type "echo", :msg_id 2}</title></rect><use xlink:href="#ahead" x="960.2083107326243" y="0" /><text text-anchor="middle" x="480.10415536631217" y="-4" transform="" filter="url(#glow)" style="fill: #fff" >echo {:echo "Please echo 93"}</text><text text-anchor="middle" x="480.10415536631217" y="-4" transform="" >echo {:echo "Please echo 93"}</text></g><g transform="translate(1020.0 1130.0) rotate(178.80651057601798) " ><rect x="0" y="-2.5" height="5" width="956.2083107326243" fill="#81BFFC" ><title >n4 → c10 {:echo "Please echo 93", :type "echo_ok", :msg_id 2, :in_reply_to 2}</title></rect><use xlink:href="#ahead" x="960.2083107326243" y="0" /><text text-anchor="middle" x="480.10415536631217" y="-4" transform="rotate(180 480.10415536631217 0)" filter="url(#glow)" style="fill: #fff" >echo_ok {:echo "Please echo 93"}</text><text text-anchor="middle" x="480.10415536631217" y="-4" transform="rotate(180 480.10415536631217 0)" >echo_ok {:echo "Please echo 93"}</text></g><g transform="translate(60.0 1170.0) rotate(1.193489423982035) " ><rect x="0" y="-2.5" height="5" width="956.2083107326243" fill="#81BFFC" ><title >c10 → n4 {:echo "Please echo 30", :type "echo", :msg_id 3}</title></rect><use xlink:href="#ahead" x="960.2083107326243" y="0" /><text text-anchor="middle" x="480.10415536631217" y="-4" transform="" filter="url(#glow)" style="fill: #fff" >echo {:echo "Please echo 30"}</text><text text-anchor="middle" x="480.10415536631217" y="-4" transform="" >echo {:echo "Please echo 30"}</text></g><g transform="translate(1020.0 1210.0) rotate(178.80651057601798) " ><rect x="0" y="-2.5" height="5" width="956.2083107326243" fill="#81BFFC" ><title >n4 → c10 {:echo "Please echo 30", :type "echo_ok", :msg_id 3, :in_reply_to 3}</title></rect><use xlink:href="#ahead" x="960.2083107326243" y="0" /><text text-anchor="middle" x="480.10415536631217" y="-4" transform="rotate(180 480.10415536631217 0)" filter="url(#glow)" style="fill: #fff" >echo_ok {:echo "Please echo 30"}</text><text text-anchor="middle" x="480.10415536631217" y="-4" transform="rotate(180 480.10415536631217 0)" >echo_ok {:echo "Please echo 30"}</text></g><g transform="translate(300.0 1250.0) rotate(3.179830119864234) " ><rect x="0" y="-2.5" height="5" width="356.5551275463989" fill="#81BFFC" ><title >c12 → n1 {:echo "Please echo 102", :type "echo", :msg_id 3}</title></rect><use xlink:href="#ahead" x="360.5551275463989" y="0" /><text text-anchor="middle" x="180.27756377319946" y="-4" transform="" filter="url(#glow)" style="fill: #fff" >echo {:echo "Please echo 102"}</text><text text-anchor="middle" x="180.27756377319946" y="-4" transform="" >echo {:echo "Please echo 102"}</text></g><g transform="translate(660.0 1290.0) rotate(176.82016988013578) " ><rect x="0" y="-2.5" height="5" width="356.5551275463989" fill="#81BFFC" ><title >n1 → c12 {:echo "Please echo 102", :type "echo_ok", :msg_id 3, :in_reply_to 3}</title></rect><use xlink:href="#ahead" x="360.5551275463989" y="0" /><text text-anchor="middle" x="180.27756377319946" y="-4" transform="rotate(180 180.27756377319946 0)" filter="url(#glow)" style="fill: #fff" >echo_ok {:echo "Please echo 102"}</text><text text-anchor="middle" x="180.27756377319946" y="-4" transform="rotate(180 180.27756377319946 0)" >echo_ok {:echo "Please echo 102"}</text></g><g transform="translate(180.0 1330.0) rotate(1.193489423982035) " ><rect x="0" y="-2.5" height="5" width="956.2083107326243" fill="#81BFFC" ><title >c11 → n5 {:echo "Please echo 83", :type "echo", :msg_id 4}</title></rect><use xlink:href="#ahead" x="960.2083107326243" y="0" /><text text-anchor="middle" x="480.10415536631217" y="-4" transform="" filter="url(#glow)" style="fill: #fff" >echo {:echo "Please echo 83"}</text><text text-anchor="middle" x="480.10415536631217" y="-4" transform="" >echo {:echo "Please echo 83"}</text></g><g transform="translate(1140.0 1370.0) rotate(178.80651057601798) " ><rect x="0" y="-2.5" height="5" width="956.2083107326243" fill="#81BFFC" ><title >n5 → c11 {:echo "Please echo 83", :type "echo_ok", :msg_id 4, :in_reply_to 4}</title></rect><use xlink:href="#ahead" x="960.2083107326243" y="0" /><text text-anchor="middle" x="480.10415536631217" y="-4" transform="rotate(180 480.10415536631217 0)" filter="url(#glow)" style="fill: #fff" >echo_ok {:echo "Please echo 83"}</text><text text-anchor="middle" x="480.10415536631217" y="-4" transform="rotate(180 480.10415536631217 0)" >echo_ok {:echo "Please echo 83"}</text></g><g transform="translate(300.0 1410.0) rotate(3.179830119864234) " ><rect x="0" y="-2.5" height="5" width="356.5551275463989" fill="#81BFFC" ><title >c12 → n1 {:echo "Please echo 70", :type "echo", :msg_id 4}</title></rect><use xlink:href="#ahead" x="360.5551275463989" y="0" /><text text-anchor="middle" x="180.27756377319946" y="-4" transform="" filter="url(#glow)" style="fill: #fff" >echo {:echo "Please echo 70"}</text><text text-anchor="middle" x="180.27756377319946" y="-4" transform="" >echo {:echo "Please echo 70"}</text></g><g transform="translate(660.0 1450.0) rotate(176.82016988013578) " ><rect x="0" y="-2.5" height="5" width="356.5551275463989" fill="#81BFFC" ><title >n1 → c12 {:echo "Please echo 70", :type "echo_ok", :msg_id 4, :in_reply_to 4}</title></rect><use xlink:href="#ahead" x="360.5551275463989" y="0" /><text text-anchor="middle" x="180.27756377319946" y="-4" transform="rotate(180 180.27756377319946 0)" filter="url(#glow)" style="fill: #fff" >echo_ok {:echo "Please echo 70"}</text><text text-anchor="middle" x="180.27756377319946" y="-4" transform="rotate(180 180.27756377319946 0)" >echo_ok {:echo "Please echo 70"}</text></g><g transform="translate(180.0 1490.0) rotate(1.193489423982035) " ><rect x="0" y="-2.5" height="5" width="956.2083107326243" fill="#81BFFC" ><title >c11 → n5 {:echo "Please echo 100", :type "echo", :msg_id 5}</title></rect><use xlink:href="#ahead" x="960.2083107326243" y="0" /><text text-anchor="middle" x="480.10415536631217" y="-4" transform="" filter="url(#glow)" style="fill: #fff" >echo {:echo "Please echo 100"}</text><text text-anchor="middle" x="480.10415536631217" y="-4" transform="" >echo {:echo "Please echo 100"}</text></g><g transform="translate(1140.0 1530.0) rotate(178.80651057601798) " ><rect x="0" y="-2.5" height="5" width="956.2083107326243" fill="#81BFFC" ><title >n5 → c11 {:echo "Please echo 100", :type "echo_ok", :msg_id 5, :in_reply_to 5}</title></rect><use xlink:href="#ahead" x="960.2083107326243" y="0" /><text text-anchor="middle" x="480.10415536631217" y="-4" transform="rotate(180 480.10415536631217 0)" filter="url(#glow)" style="fill: #fff" >echo_ok {:echo "Please echo 100"}</text><text text-anchor="middle" x="480.10415536631217" y="-4" transform="rotate(180 480.10415536631217 0)" >echo_ok {:echo "Please echo 100"}</text></g><g transform="translate(300.0 1570.0) rotate(3.179830119864234) " ><rect x="0" y="-2.5" height="5" width="356.5551275463989" fill="#81BFFC" ><title >c12 → n1 {:echo "Please echo 8", :type "echo", :msg_id 5}</title></rect><use xlink:href="#ahead" x="360.5551275463989" y="0" /><text text-anchor="middle" x="180.27756377319946" y="-4" transform="" filter="url(#glow)" style="fill: #fff" >echo {:echo "Please echo 8"}</text><text text-anchor="middle" x="180.27756377319946" y="-4" transform="" >echo {:echo "Please echo 8"}</text></g><g transform="translate(660.0 1610.0) rotate(176.82016988013578) " ><rect x="0" y="-2.5" height="5" width="356.5551275463989" fill="#81BFFC" ><title >n1 → c12 {:echo "Please echo 8", :type "echo_ok", :msg_id 5, :in_reply_to 5}</title></rect><use xlink:href="#ahead" x="360.5551275463989" y="0" /><text text-anchor="middle" x="180.27756377319946" y="-4" transform="rotate(180 180.27756377319946 0)" filter="url(#glow)" style="fill: #fff" >echo_ok {:echo "Please echo 8"}</text><text text-anchor="middle" x="180.27756377319946" y="-4" transform="rotate(180 180.27756377319946 0)" >echo_ok {:echo "Please echo 8"}</text></g><g transform="translate(60.0 1650.0) rotate(1.193489423982035) " ><rect x="0" y="-2.5" height="5" width="956.2083107326243" fill="#81BFFC" ><title >c10 → n4 {:echo "Please echo 111", :type "echo", :msg_id 4}</title></rect><use xlink:href="#ahead" x="960.2083107326243" y="0" /><text text-anchor="middle" x="480.10415536631217" y="-4" transform="" filter="url(#glow)" style="fill: #fff" >echo {:echo "Please echo 111"}</text><text text-anchor="middle" x="480.10415536631217" y="-4" transform="" >echo {:echo "Please echo 111"}</text></g><g transform="translate(1020.0 1690.0) rotate(178.80651057601798) " ><rect x="0" y="-2.5" height="5" width="956.2083107326243" fill="#81BFFC" ><title >n4 → c10 {:echo "Please echo 111", :type "echo_ok", :msg_id 4, :in_reply_to 4}</title></rect><use xlink:href="#ahead" x="960.2083107326243" y="0" /><text text-anchor="middle" x="480.10415536631217" y="-4" transform="rotate(180 480.10415536631217 0)" filter="url(#glow)" style="fill: #fff" >echo_ok {:echo "Please echo 111"}</text><text text-anchor="middle" x="480.10415536631217" y="-4" transform="rotate(180 480.10415536631217 0)" >echo_ok {:echo "Please echo 111"}</text></g><g transform="translate(300.0 1730.0) rotate(3.179830119864234) " ><rect x="0" y="-2.5" height="5" width="356.5551275463989" fill="#81BFFC" ><title >c12 → n1 {:echo "Please echo 31", :type "echo", :msg_id 6}</title></rect><use xlink:href="#ahead" x="360.5551275463989" y="0" /><text text-anchor="middle" x="180.27756377319946" y="-4" transform="" filter="url(#glow)" style="fill: #fff" >echo {:echo "Please echo 31"}</text><text text-anchor="middle" x="180.27756377319946" y="-4" transform="" >echo {:echo "Please echo 31"}</text></g><g transform="translate(660.0 1770.0) rotate(176.82016988013578) " ><rect x="0" y="-2.5" height="5" width="356.5551275463989" fill="#81BFFC" ><title >n1 → c12 {:echo "Please echo 31", :type "echo_ok", :msg_id 6, :in_reply_to 6}</title></rect><use xlink:href="#ahead" x="360.5551275463989" y="0" /><text text-anchor="middle" x="180.27756377319946" y="-4" transform="rotate(180 180.27756377319946 0)" filter="url(#glow)" style="fill: #fff" >echo_ok {:echo "Please echo 31"}</text><text text-anchor="middle" x="180.27756377319946" y="-4" transform="rotate(180 180.27756377319946 0)" >echo_ok {:echo "Please echo 31"}</text></g><g transform="translate(180.0 1810.0) rotate(1.193489423982035) " ><rect x="0" y="-2.5" height="5" width="956.2083107326243" fill="#81BFFC" ><title >c11 → n5 {:echo "Please echo 41", :type "echo", :msg_id 6}</title></rect><use xlink:href="#ahead" x="960.2083107326243" y="0" /><text text-anchor="middle" x="480.10415536631217" y="-4" transform="" filter="url(#glow)" style="fill: #fff" >echo {:echo "Please echo 41"}</text><text text-anchor="middle" x="480.10415536631217" y="-4" transform="" >echo {:echo "Please echo 41"}</text></g><g transform="translate(1140.0 1850.0) rotate(178.80651057601798) " ><rect x="0" y="-2.5" height="5" width="956.2083107326243" fill="#81BFFC" ><title >n5 → c11 {:echo "Please echo 41", :type "echo_ok", :msg_id 6, :in_reply_to 6}</title></rect><use xlink:href="#ahead" x="960.2083107326243" y="0" /><text text-anchor="middle" x="480.10415536631217" y="-4" transform="rotate(180 480.10415536631217 0)" filter="url(#glow)" style="fill: #fff" >echo_ok {:echo "Please echo 41"}</text><text text-anchor="middle" x="480.10415536631217" y="-4" transform="rotate(180 480.10415536631217 0)" >echo_ok {:echo "Please echo 41"}</text></g><g transform="translate(60.0 1890.0) rotate(1.193489423982035) " ><rect x="0" y="-2.5" height="5" width="956.2083107326243" fill="#81BFFC" ><title >c10 → n4 {:echo "Please echo 87", :type "echo", :msg_id 5}</title></rect><use xlink:href="#ahead" x="960.2083107326243" y="0" /><text text-anchor="middle" x="480.10415536631217" y="-4" transform="" filter="url(#glow)" style="fill: #fff" >echo {:echo "Please echo 87"}</text><text text-anchor="middle" x="480.10415536631217" y="-4" transform="" >echo {:echo "Please echo 87"}</text></g><g transform="translate(1020.0 1930.0) rotate(178.80651057601798) " ><rect x="0" y="-2.5" height="5" width="956.2083107326243" fill="#81BFFC" ><title >n4 → c10 {:echo "Please echo 87", :type "echo_ok", :msg_id 5, :in_reply_to 5}</title></rect><use xlink:href="#ahead" x="960.2083107326243" y="0" /><text text-anchor="middle" x="480.10415536631217" y="-4" transform="rotate(180 480.10415536631217 0)" filter="url(#glow)" style="fill: #fff" >echo_ok {:echo "Please echo 87"}</text><text text-anchor="middle" x="480.10415536631217" y="-4" transform="rotate(180 480.10415536631217 0)" >echo_ok {:echo "Please echo 87"}</text></g></g></svg>