<?xml version="1.0" encoding="UTF-8"?><svg xmlns:svg="http://www.w3.org/2000/svg" xmlns="http://www.w3.org/2000/svg" xmlns:xlink="http://www.w3.org/1999/xlink" version="2.0" width="1200" height="2220" ><style >
svg {
  font-family: Helvetica, Arial, sans-serif;
  font-size: 11px;
}
rect {
  stroke-linecap: butt;
  stroke-width: 3;
  stroke: #fff;
/*  stroke-opacity: 1; */
}
rect:hover {
  stroke: #fff;
/*  stroke-opacity: 1; /*
}
polygon { fill: #000; }</style><defs ><polygon id="ahead" points="0 0, -12 4, -12 -4" /><filter id="glow" x="0" y="0" ><feGaussianBlur in="SourceAlpha" stdDeviation="2" result="blurred" /><feFlood flood-color="#fff" /><feComposite operator="in" in2="blurred" /><feComponentTransfer ><feFuncA type="linear" slope="10" intercept="0" /></feComponentTransfer><feMerge ><feMergeNode /><feMergeNode in="SourceGraphic" /></feMerge></filter></defs><g ><text x="60.0" y="20.0" text-anchor="middle" alignment-baseline="middle" fill="#000" >c10</text><text x="60.0" y="1020.0" text-anchor="middle" alignment-baseline="middle" fill="#aaa" >c10</text><text x="60.0" y="2020.0" text-anchor="middle" alignment-baseline="middle" fill="#aaa" >c10</text><text x="180.0" y="20.0" text-anchor="middle" alignment-baseline="middle" fill="#000" >c11</text><text x="180.0" y="1020.0" text-anchor="middle" alignment-baseline="middle" fill="#aaa" >c11</text><text x="180.0" y="2020.0" text-anchor="middle" alignment-baseline="middle" fill="#aaa" >c11</text><text x="300.0" y="20.0" text-anchor="middle" alignment-baseline="middle" fill="#000" >c12</text><text x="300.0" y="1020.0" text-anchor="middle" alignment-baseline="middle" fill="#aaa" >c12</text><text x="300.0" y="2020.0" text-anchor="middle" alignment-baseline="middle" fill="#aaa" >c12</text><text x="420.0" y="20.0" text-anchor="middle" alignment-baseline="middle" fill="#000" >c13</text><text x="420.0" y="1020.0" text-anchor="middle" alignment-baseline="middle" fill="#aaa" >c13</text><text x="420.0" y="2020.0" text-anchor="middle" alignment-baseline="middle" fill="#aaa" >c13</text><text x="540.0" y="20.0" text-anchor="middle" alignment-baseline="middle" fill="#000" >c14</text><text x="540.0" y="1020.0" text-anchor="middle" alignment-baseline="middle" fill="#aaa" >c14</text><text x="540.0" y="2020.0" text-anchor="middle" alignment-baseline="middle" fill="#aaa" >c14</text><text x="660.0" y="20.0" text-anchor="middle" alignment-baseline="middle" fill="#000" >n1</text><text x="660.0" y="1020.0" text-anchor="middle" alignment-baseline="middle" fill="#aaa" >n1</text><text x="660.0" y="2020.0" text-anchor="middle" alignment-baseline="middle" fill="#aaa" >n1</text><text x="780.0" y="20.0" text-anchor="middle" alignment-baseline="middle" fill="#000" >n2</text><text x="780.0" y="1020.0" text-anchor="middle" alignment-baseline="middle" fill="#aaa" >n2</text><text x="780.0" y="2020.0" text-anchor="middle" alignment-baseline="middle" fill="#aaa" >n2</text><text x="900.0" y="20.0" text-anchor="middle" alignment-baseline="middle" fill="#000" >n3</text><text x="900.0" y="1020.0" text-anchor="middle" alignment-baseline="middle" fill="#aaa" >n3</text><text x="900.0" y="2020.0" text-anchor="middle" alignment-baseline="middle" fill="#aaa" >n3</text><text x="1020.0" y="20.0" text-anchor="middle" alignment-baseline="middle" fill="#000" >n4</text><text x="1020.0" y="1020.0" text-anchor="middle" alignment-baseline="middle" fill="#aaa" >n4</text><text x="1020.0" y="2020.0" text-anchor="middle" alignment-baseline="middle" fill="#aaa" >n4</text><text x="1140.0" y="20.0" text-anchor="middle" alignment-baseline="middle" fill="#000" >n5</text><text x="1140.0" y="1020.0" text-anchor="middle" alignment-baseline="middle" fill="#aaa" >n5</text><text x="1140.0" y="2020.0" text-anchor="middle" alignment-baseline="middle" fill="#aaa" >n5</text></g><g ><line stroke="#ccc" x1="60.0" y1="30.0" x2="60.0" y2="2130.0" /><line stroke="#ccc" x1="180.0" y1="30.0" x2="180.0" y2="2130.0" /><line stroke="#ccc" x1="300.0" y1="30.0" x2="300.0" y2="2130.0" /><line stroke="#ccc" x1="420.0" y1="30.0" x2="420.0" y2="2130.0" /><line stroke="#ccc" x1="540.0" y1="30.0" x2="540.0" y2="2130.0" /><line stroke="#ccc" x1="660.0" y1="30.0" x2="660.0" y2="2130.0" /><line stroke="#ccc" x1="780.0" y1="30.0" x2="780.0" y2="2130.0" /><line stroke="#ccc" x1="900.0" y1="30.0" x2="900.0" y2="2130.0" /><line stroke="#ccc" x1="1020.0" y1="30.0" x2="1020.0" y2="2130.0" /><line stroke="#ccc" x1="1140.0" y1="30.0" x2="1140.0" y2="2130.0" /></g><g ><g transform="translate(60.0 50.0) rotate(1.9091524329963763) " ><rect x="0" y="-2.5" height="5" width="596.3332407921454" fill="#81BFFC" ><title >c10 → n1 {:echo "Please echo 41", :type "echo", :msg_id 1}</title></rect><use xlink:href="#ahead" x="600.3332407921454" y="0" /><text text-anchor="middle" x="300.1666203960727" y="-4" transform="" filter="url(#glow)" style="fill: #fff" >echo {:echo "Please echo 41"}</text><text text-anchor="middle" x="300.1666203960727" y="-4" transform="" >echo {:echo "Please echo 41"}</text></g><g transform="translate(660.0 90.0) rotate(178.0908475670036) " ><rect x="0" y="-2.5" height="5" width="596.3332407921454" fill="#81BFFC" ><title >n1 → c10 {:echo "Please echo 41", :type "echo_ok", :msg_id 1, :in_reply_to 1}</title></rect><use xlink:href="#ahead" x="600.3332407921454" y="0" /><text text-anchor="middle" x="300.1666203960727" y="-4" transform="rotate(180 300.1666203960727 0)" filter="url(#glow)" style="fill: #fff" >echo_ok {:echo "Please echo 41"}</text><text text-anchor="middle" x="300.1666203960727" y="-4" transform="rotate(180 300.1666203960727 0)" >echo_ok {:echo "Please echo 41"}</text></g><g transform="translate(180.0 130.0) rotate(1.3639275316029187) " ><rect x="0" y="-2.5" height="5" width="836.2380615040001" fill="#81BFFC" ><title >c11 → n4 {:echo "Please echo 126", :type "echo", :msg_id 1}</title></rect><use xlink:href="#ahead" x="840.2380615040001" y="0" /><text text-anchor="middle" x="420.11903075200007" y="-4" transform="" filter="url(#glow)" style="fill: #fff" >echo {:echo "Please echo 126"}</text><text text-anchor="middle" x="420.11903075200007" y="-4" transform="" >echo {:echo "Please echo 126"}</text></g><g transform="translate(1020.0 170.0) rotate(178.6360724683971) " ><rect x="0" y="-2.5" height="5" width="836.2380615040001" fill="#81BFFC" ><title >n4 → c11 {:echo "Please echo 126", :type "echo_ok", :msg_id 1, :in_reply_to 1}</title></rect><use xlink:href="#ahead" x="840.2380615040001" y="0" /><text text-anchor="middle" x="420.11903075200007" y="-4" transform="rotate(180 420.11903075200007 0)" filter="url(#glow)" style="fill: #fff" >echo_ok {:echo "Please echo 126"}</text><text text-anchor="middle" x="420.11903075200007" y="-4" transform="rotate(180 420.11903075200007 0)" >echo_ok {:echo "Please echo 126"}</text></g><g transform="translate(300.0 210.0) rotate(1.9091524329963763) " ><rect x="0" y="-2.5" height="5" width="596.3332407921454" fill="#81BFFC" ><title >c12 → n3 {:echo "Please echo 93", :type "echo", :msg_id 1}</title></rect><use xlink:href="#ahead" x="600.3332407921454" y="0" /><text text-anchor="middle" x="300.1666203960727" y="-4" transform="" filter="url(#glow)" style="fill: #fff" >echo {:echo "Please echo 93"}</text><text text-anchor="middle" x="300.1666203960727" y="-4" transform="" >echo {:echo "Please echo 93"}</text></g><g transform="translate(900.0 250.0) rotate(178.0908475670036) " ><rect x="0" y="-2.5" height="5" width="596.3332407921454" fill="#81BFFC" ><title >n3 → c12 {:echo "Please echo 93", :type "echo_ok", :msg_id 1, :in_reply_to 1}</title></rect><use xlink:href="#ahead" x="600.3332407921454" y="0" /><text text-anchor="middle" x="300.1666203960727" y="-4" transform="rotate(180 300.1666203960727 0)" filter="url(#glow)" style="fill: #fff" >echo_ok {:echo "Please echo 93"}</text><text text-anchor="middle" x="300.1666203960727" y="-4" transform="rotate(180 300.1666203960727 0)" >echo_ok {:echo "Please echo 93"}</text></g><g transform="translate(300.0 290.0) rotate(1.9091524329963763) " ><rect x="0" y="-2.5" height="5" width="596.3332407921454" fill="#81BFFC" ><title >c12 → n3 {:echo "Please echo 120", :type "echo", :msg_id 2}</title></rect><use xlink:href="#ahead" x="600.3332407921454" y="0" /><text text-anchor="middle" x="300.1666203960727" y="-4" transform="" filter="url(#glow)" style="fill: #fff" >echo {:echo "Please echo 120"}</text><text text-anchor="middle" x="300.1666203960727" y="-4" transform="" >echo {:echo "Please echo 120"}</text></g><g transform="translate(900.0 330.0) rotate(176.18592516570965) " ><rect x="0" y="-2.5" height="5" width="597.3318551349163" fill="#81BFFC" ><title >n3 → c12 {:echo "Please echo 120", :type "echo_ok", :msg_id 2, :in_reply_to 2}</title></rect><use xlink:href="#ahead" x="601.3318551349163" y="0" /><text text-anchor="middle" x="300.66592756745814" y="-4" transform="rotate(180 300.66592756745814 0)" filter="url(#glow)" style="fill: #fff" >echo_ok {:echo "Please echo 120"}</text><text text-anchor="middle" x="300.66592756745814" y="-4" transform="rotate(180 300.66592756745814 0)" >echo_ok {:echo "Please echo 120"}</text></g><g transform="translate(60.0 350.0) rotate(3.8140748342903543) " ><rect x="0" y="-2.5" height="5" width="597.3318551349163" fill="#81BFFC" ><title >c10 → n1 {:echo "Please echo 16", :type "echo", :msg_id 2}</title></rect><use xlink:href="#ahead" x="601.3318551349163" y="0" /><text text-anchor="middle" x="300.66592756745814" y="-4" transform="" filter="url(#glow)" style="fill: #fff" >echo {:echo "Please echo 16"}</text><text text-anchor="middle" x="300.66592756745814" y="-4" transform="" >echo {:echo "Please echo 16"}</text></g><g transform="translate(660.0 410.0) rotate(178.0908475670036) " ><rect x="0" y="-2.5" height="5" width="596.3332407921454" fill="#81BFFC" ><title >n1 → c10 {:echo "Please echo 16", :type "echo_ok", :msg_id 2, :in_reply_to 2}</title></rect><use xlink:href="#ahead" x="600.3332407921454" y="0" /><text text-anchor="middle" x="300.1666203960727" y="-4" transform="rotate(180 300.1666203960727 0)" filter="url(#glow)" style="fill: #fff" >echo_ok {:echo "Please echo 16"}</text><text text-anchor="middle" x="300.1666203960727" y="-4" transform="rotate(180 300.1666203960727 0)" >echo_ok {:echo "Please echo 16"}</text></g><g transform="translate(300.0 450.0) rotate(1.9091524329963763) " ><rect x="0" y="-2.5" height="5" width="596.3332407921454" fill="#81BFFC" ><title >c12 → n3 {:echo "Please echo 116", :type "echo", :msg_id 3}</title></rect><use xlink:href="#ahead" x="600.3332407921454" y="0" /><text text-anchor="middle" x="300.1666203960727" y="-4" transform="" filter="url(#glow)" style="fill: #fff" >echo {:echo "Please echo 116"}</text><text text-anchor="middle" x="300.1666203960727" y="-4" transform="" >echo {:echo "Please echo 116"}</text></g><g transform="translate(900.0 490.0) rotate(178.0908475670036) " ><rect x="0" y="-2.5" height="5" width="596.3332407921454" fill="#81BFFC" ><title >n3 → c12 {:echo "Please echo 116", :type "echo_ok", :msg_id 3, :in_reply_to 3}</title></rect><use xlink:href="#ahead" x="600.3332407921454" y="0" /><text text-anchor="middle" x="300.1666203960727" y="-4" transform="rotate(180 300.1666203960727 0)" filter="url(#glow)" style="fill: #fff" >echo_ok {:echo "Please echo 116"}</text><text text-anchor="middle" x="300.1666203960727" y="-4" transform="rotate(180 300.1666203960727 0)" >echo_ok {:echo "Please echo 116"}</text></g><g transform="translate(60.0 530.0) rotate(1.9091524329963763) " ><rect x="0" y="-2.5" height="5" width="596.3332407921454" fill="#81BFFC" ><title >c10 → n1 {:echo "Please echo 118", :type "echo", :msg_id 3}</title></rect><use xlink:href="#ahead" x="600.3332407921454" y="0" /><text text-anchor="middle" x="300.1666203960727" y="-4" transform="" filter="url(#glow)" style="fill: #fff" >echo {:echo "Please echo 118"}</text><text text-anchor="middle" x="300.1666203960727" y="-4" transform="" >echo {:echo "Please echo 118"}</text></g><g transform="translate(660.0 570.0) rotate(178.0908475670036) " ><rect x="0" y="-2.5" height="5" width="596.3332407921454" fill="#81BFFC" ><title >n1 → c10 {:echo "Please echo 118", :type "echo_ok", :msg_id 3, :in_reply_to 3}</title></rect><use xlink:href="#ahead" x="600.3332407921454" y="0" /><text text-anchor="middle" x="300.1666203960727" y="-4" transform="rotate(180 300.1666203960727 0)" filter="url(#glow)" style="fill: #fff" >echo_ok {:echo "Please echo 118"}</text><text text-anchor="middle" x="300.1666203960727" y="-4" transform="rotate(180 300.1666203960727 0)" >echo_ok {:echo "Please echo 118"}</text></g><g transform="translate(420.0 610.0) rotate(1.5911402711945872) " ><rect x="0" y="-2.5" height="5" width="716.2777242147642" fill="#81BFFC" ><title >c13 → n5 {:echo "Please echo 37", :type "echo", :msg_id 1}</title></rect><use xlink:href="#ahead" x="720.2777242147642" y="0" /><text text-anchor="middle" x="360.1388621073821" y="-4" transform="" filter="url(#glow)" style="fill: #fff" >echo {:echo "Please echo 37"}</text><text text-anchor="middle" x="360.1388621073821" y="-4" transform="" >echo {:echo "Please echo 37"}</text></g><g transform="translate(1140.0 650.0) rotate(178.4088597288054) " ><rect x="0" y="-2.5" height="5" width="716.2777242147642" fill="#81BFFC" ><title >n5 → c13 {:echo "Please echo 37", :type "echo_ok", :msg_id 1, :in_reply_to 1}</title></rect><use xlink:href="#ahead" x="720.2777242147642" y="0" /><text text-anchor="middle" x="360.1388621073821" y="-4" transform="rotate(180 360.1388621073821 0)" filter="url(#glow)" style="fill: #fff" >echo_ok {:echo "Please echo 37"}</text><text text-anchor="middle" x="360.1388621073821" y="-4" transform="rotate(180 360.1388621073821 0)" >echo_ok {:echo "Please echo 37"}</text></g><g transform="translate(420.0 690.0) rotate(1.5911402711945872) " ><rect x="0" y="-2.5" height="5" width="716.2777242147642" fill="#81BFFC" ><title >c13 → n5 {:echo "Please echo 23", :type "echo", :msg_id 2}</title></rect><use xlink:href="#ahead" x="720.2777242147642" y="0" /><text text-anchor="middle" x="360.1388621073821" y="-4" transform="" filter="url(#glow)" style="fill: #fff" >echo {:echo "Please echo 23"}</text><text text-anchor="middle" x="360.1388621073821" y="-4" transform="" >echo {:echo "Please echo 23"}</text></g><g transform="translate(1140.0 730.0) rotate(178.4088597288054) " ><rect x="0" y="-2.5" height="5" width="716.2777242147642" fill="#81BFFC" ><title >n5 → c13 {:echo "Please echo 23", :type "echo_ok", :msg_id 2, :in_reply_to 2}</title></rect><use xlink:href="#ahead" x="720.2777242147642" y="0" /><text text-anchor="middle" x="360.1388621073821" y="-4" transform="rotate(180 360.1388621073821 0)" filter="url(#glow)" style="fill: #fff" >echo_ok {:echo "Please echo 23"}</text><text text-anchor="middle" x="360.1388621073821" y="-4" transform="rotate(180 360.1388621073821 0)" >echo_ok {:echo "Please echo 23"}</text></g><g transform="translate(180.0 770.0) rotate(1.3639275316029187) " ><rect x="0" y="-2.5" height="5" width="836.2380615040001" fill="#81BFFC" ><title >c11 → n4 {:echo "Please echo 127", :type "echo", :msg_id 2}</title></rect><use xlink:href="#ahead" x="840.2380615040001" y="0" /><text text-anchor="middle" x="420.11903075200007" y="-4" transform="" filter="url(#glow)" style="fill: #fff" >echo {:echo "Please echo 127"}</text><text text-anchor="middle" x="420.11903075200007" y="-4" transform="" >echo {:echo "Please echo 127"}</text></g><g transform="translate(1020.0 810.0) rotate(178.6360724683971) " ><rect x="0" y="-2.5" height="5" width="836.2380615040001" fill="#81BFFC" ><title >n4 → c11 {:echo "Please echo 127", :type "echo_ok", :msg_id 2, :in_reply_to 2}</title></rect><use xlink:href="#ahead" x="840.2380615040001" y="0" /><text text-anchor="middle" x="420.11903075200007" y="-4" transform="rotate(180 420.11903075200007 0)" filter="url(#glow)" style="fill: #fff" >echo_ok {:echo "Please echo 127"}</text><text text-anchor="middle" x="420.11903075200007" y="-4" transform="rotate(180 420.11903075200007 0)" >echo_ok {:echo "Please echo 127"}</text></g><g transform="translate(540.0 850.0) rotate(4.763641690726177) " ><rect x="0" y="-2.5" height="5" width="236.8318915758459" fill="#81BFFC" ><title >c14 → n2 {:echo "Please echo 98", :type "echo", :msg_id 1}</title></rect><use xlink:href="#ahead" x="240.8318915758459" y="0" /><text text-anchor="middle" x="120.41594578792295" y="-4" transform="" filter="url(#glow)" style="fill: #fff" >echo {:echo "Please echo 98"}</text><text text-anchor="middle" x="120.41594578792295" y="-4" transform="" >echo {:echo "Please echo 98"}</text></g><g transform="translate(780.0 890.0) rotate(175.2363583092738) " ><rect x="0" y="-2.5" height="5" width="236.8318915758459" fill="#81BFFC" ><title >n2 → c14 {:echo "Please echo 98", :type "echo_ok", :msg_id 1, :in_reply_to 1}</title></rect><use xlink:href="#ahead" x="240.8318915758459" y="0" /><text text-anchor="middle" x="120.41594578792295" y="-4" transform="rotate(180 120.41594578792295 0)" filter="url(#glow)" style="fill: #fff" >echo_ok {:echo "Please echo 98"}</text><text text-anchor="middle" x="120.41594578792295" y="-4" transform="rotate(180 120.41594578792295 0)" >echo_ok {:echo "Please echo 98"}</text></g><g transform="translate(540.0 930.0) rotate(4.763641690726177) " ><rect x="0" y="-2.5" height="5" width="236.8318915758459" fill="#81BFFC" ><title >c14 → n2 {:echo "Please echo 86", :type "echo", :msg_id 2}</title></rect><use xlink:href="#ahead" x="240.8318915758459" y="0" /><text text-anchor="middle" x="120.41594578792295" y="-4" transform="" filter="url(#glow)" style="fill: #fff" >echo {:echo "Please echo 86"}</text><text text-anchor="middle" x="120.41594578792295" y="-4" transform="" >echo {:echo "Please echo 86"}</text></g><g transform="translate(780.0 970.0) rotate(175.2363583092738) " ><rect x="0" y="-2.5" height="5" width="236.8318915758459" fill="#81BFFC" ><title >n2 → c14 {:echo "Please echo 86", :type "echo_ok", :msg_id 2, :in_reply_to 2}</title></rect><use xlink:href="#ahead" x="240.8318915758459" y="0" /><text text-anchor="middle" x="120.41594578792295" y="-4" transform="rotate(180 120.41594578792295 0)" filter="url(#glow)" style="fill: #fff" >echo_ok {:echo "Please echo 86"}</text><text text-anchor="middle" x="120.41594578792295" y="-4" transform="rotate(180 120.41594578792295 0)" >echo_ok {:echo "Please echo 86"}</text></g><g transform="translate(60.0 1010.0) rotate(1.9091524329963763) " ><rect x="0" y="-2.5" height="5" width="596.3332407921454" fill="#81BFFC" ><title >c10 → n1 {:echo "Please echo 46", :type "echo", :msg_id 4}</title></rect><use xlink:href="#ahead" x="600.3332407921454" y="0" /><text text-anchor="middle" x="300.1666203960727" y="-4" transform="" filter="url(#glow)" style="fill: #fff" >echo {:echo "Please echo 46"}</text><text text-anchor="middle" x="300.1666203960727" y="-4" transform="" >echo {:echo "Please echo 46"}</text></g><g transform="translate(660.0 1050.0) rotate(178.0908475670036) " ><rect x="0" y="-2.5" height="5" width="596.3332407921454" fill="#81BFFC" ><title >n1 → c10 {:echo "Please echo 46", :type "echo_ok", :msg_id 4, :in_reply_to 4}</title></rect><use xlink:href="#ahead" x="600.3332407921454" y="0" /><text text-anchor="middle" x="300.1666203960727" y="-4" transform="rotate(180 300.1666203960727 0)" filter="url(#glow)" style="fill: #fff" >echo_ok {:echo "Please echo 46"}</text><text text-anchor="middle" x="300.1666203960727" y="-4" transform="rotate(180 300.1666203960727 0)" >echo_ok {:echo "Please echo 46"}</text></g><g transform="translate(180.0 1090.0) rotate(1.3639275316029187) " ><rect x="0" y="-2.5" height="5" width="836.2380615040001" fill="#81BFFC" ><title >c11 → n4 {:echo "Please echo 121", :type "echo", :msg_id 3}</title></rect><use xlink:href="#ahead" x="840.2380615040001" y="0" /><text text-anchor="middle" x="420.11903075200007" y="-4" transform="" filter="url(#glow)" style="fill: #fff" >echo {:echo "Please echo 121"}</text><text text-anchor="middle" x="420.11903075200007" y="-4" transform="" >echo {:echo "Please echo 121"}</text></g><g transform="translate(1020.0 1130.0) rotate(178.6360724683971) " ><rect x="0" y="-2.5" height="5" width="836.2380615040001" fill="#81BFFC" ><title >n4 → c11 {:echo "Please echo 121", :type "echo_ok", :msg_id 3, :in_reply_to 3}</title></rect><use xlink:href="#ahead" x="840.2380615040001" y="0" /><text text-anchor="middle" x="420.11903075200007" y="-4" transform="rotate(180 420.11903075200007 0)" filter="url(#glow)" style="fill: #fff" >echo_ok {:echo "Please echo 121"}</text><text text-anchor="middle" x="420.11903075200007" y="-4" transform="rotate(180 420.11903075200007 0)" >echo_ok {:echo "Please echo 121"}</text></g><g transform="translate(60.0 1170.0) rotate(1.9091524329963763) " ><rect x="0" y="-2.5" height="5" width="596.3332407921454" fill="#81BFFC" ><title >c10 → n1 {:echo "Please echo 88", :type "echo", :msg_id 5}</title></rect><use xlink:href="#ahead" x="600.3332407921454" y="0" /><text text-anchor="middle" x="300.1666203960727" y="-4" transform="" filter="url(#glow)" style="fill: #fff" >echo {:echo "Please echo 88"}</text><text text-anchor="middle" x="300.1666203960727" y="-4" transform="" >echo {:echo "Please echo 88"}</text></g><g transform="translate(660.0 1210.0) rotate(178.0908475670036) " ><rect x="0" y="-2.5" height="5" width="596.3332407921454" fill="#81BFFC" ><title >n1 → c10 {:echo "Please echo 88", :type "echo_ok", :msg_id 5, :in_reply_to 5}</title></rect><use xlink:href="#ahead" x="600.3332407921454" y="0" /><text text-anchor="middle" x="300.1666203960727" y="-4" transform="rotate(180 300.1666203960727 0)" filter="url(#glow)" style="fill: #fff" >echo_ok {:echo "Please echo 88"}</text><text text-anchor="middle" x="300.1666203960727" y="-4" transform="rotate(180 300.1666203960727 0)" >echo_ok {:echo "Please echo 88"}</text></g><g transform="translate(180.0 1250.0) rotate(1.3639275316029187) " ><rect x="0" y="-2.5" height="5" width="836.2380615040001" fill="#81BFFC" ><title >c11 → n4 {:echo "Please echo 58", :type "echo", :msg_id 4}</title></rect><use xlink:href="#ahead" x="840.2380615040001" y="0" /><text text-anchor="middle" x="420.11903075200007" y="-4" transform="" filter="url(#glow)" style="fill: #fff" >echo {:echo "Please echo 58"}</text><text text-anchor="middle" x="420.11903075200007" y="-4" transform="" >echo {:echo "Please echo 58"}</text></g><g transform="translate(1020.0 1290.0) rotate(178.6360724683971) " ><rect x="0" y="-2.5" height="5" width="836.2380615040001" fill="#81BFFC" ><title >n4 → c11 {:echo "Please echo 58", :type "echo_ok", :msg_id 4, :in_reply_to 4}</title></rect><use xlink:href="#ahead" x="840.2380615040001" y="0" /><text text-anchor="middle" x="420.11903075200007" y="-4" transform="rotate(180 420.11903075200007 0)" filter="url(#glow)" style="fill: #fff" >echo_ok {:echo "Please echo 58"}</text><text text-anchor="middle" x="420.11903075200007" y="-4" transform="rotate(180 420.11903075200007 0)" >echo_ok {:echo "Please echo 58"}</text></g><g transform="translate(60.0 1330.0) rotate(1.9091524329963763) " ><rect x="0" y="-2.5" height="5" width="596.3332407921454" fill="#81BFFC" ><title >c10 → n1 {:echo "Please echo 86", :type "echo", :msg_id 6}</title></rect><use xlink:href="#ahead" x="600.3332407921454" y="0" /><text text-anchor="middle" x="300.1666203960727" y="-4" transform="" filter="url(#glow)" style="fill: #fff" >echo {:echo "Please echo 86"}</text><text text-anchor="middle" x="300.1666203960727" y="-4" transform="" >echo {:echo "Please echo 86"}</text></g><g transform="translate(660.0 1370.0) rotate(178.0908475670036) " ><rect x="0" y="-2.5" height="5" width="596.3332407921454" fill="#81BFFC" ><title >n1 → c10 {:echo "Please echo 86", :type "echo_ok", :msg_id 6, :in_reply_to 6}</title></rect><use xlink:href="#ahead" x="600.3332407921454" y="0" /><text text-anchor="middle" x="300.1666203960727" y="-4" transform="rotate(180 300.1666203960727 0)" filter="url(#glow)" style="fill: #fff" >echo_ok {:echo "Please echo 86"}</text><text text-anchor="middle" x="300.1666203960727" y="-4" transform="rotate(180 300.1666203960727 0)" >echo_ok {:echo "Please echo 86"}</text></g><g transform="translate(300.0 1410.0) rotate(1.9091524329963763) " ><rect x="0" y="-2.5" height="5" width="596.3332407921454" fill="#81BFFC" ><title >c12 → n3 {:echo "Please echo 74", :type "echo", :msg_id 4}</title></rect><use xlink:href="#ahead" x="600.3332407921454" y="0" /><text text-anchor="middle" x="300.1666203960727" y="-4" transform="" filter="url(#glow)" style="fill: #fff" >echo {:echo "Please echo 74"}</text><text text-anchor="middle" x="300.1666203960727" y="-4" transform="" >echo {:echo "Please echo 74"}</text></g><g transform="translate(900.0 1450.0) rotate(178.0908475670036) " ><rect x="0" y="-2.5" height="5" width="596.3332407921454" fill="#81BFFC" ><title >n3 → c12 {:echo "Please echo 74", :type "echo_ok", :msg_id 4, :in_reply_to 4}</title></rect><use xlink:href="#ahead" x="600.3332407921454" y="0" /><text text-anchor="middle" x="300.1666203960727" y="-4" transform="rotate(180 300.1666203960727 0)" filter="url(#glow)" style="fill: #fff" >echo_ok {:echo "Please echo 74"}</text><text text-anchor="middle" x="300.1666203960727" y="-4" transform="rotate(180 300.1666203960727 0)" >echo_ok {:echo "Please echo 74"}</text></g><g transform="translate(60.0 1490.0) rotate(1.9091524329963763) " ><rect x="0" y="-2.5" height="5" width="596.3332407921454" fill="#81BFFC" ><title >c10 → n1 {:echo "Please echo 101", :type "echo", :msg_id 7}</title></rect><use xlink:href="#ahead" x="600.3332407921454" y="0" /><text text-anchor="middle" x="300.1666203960727" y="-4" transform="" filter="url(#glow)" style="fill: #fff" >echo {:echo "Please echo 101"}</text><text text-anchor="middle" x="300.1666203960727" y="-4" transform="" >echo {:echo "Please echo 101"}</text></g><g transform="translate(660.0 1530.0) rotate(178.0908475670036) " ><rect x="0" y="-2.5" height="5" width="596.3332407921454" fill="#81BFFC" ><title >n1 → c10 {:echo "Please echo 101", :type "echo_ok", :msg_id 7, :in_reply_to 7}</title></rect><use xlink:href="#ahead" x="600.3332407921454" y="0" /><text text-anchor="middle" x="300.1666203960727" y="-4" transform="rotate(180 300.1666203960727 0)" filter="url(#glow)" style="fill: #fff" >echo_ok {:echo "Please echo 101"}</text><text text-anchor="middle" x="300.1666203960727" y="-4" transform="rotate(180 300.1666203960727 0)" >echo_ok {:echo "Please echo 101"}</text></g><g transform="translate(180.0 1570.0) rotate(1.3639275316029187) " ><rect x="0" y="-2.5" height="5" width="836.2380615040001" fill="#81BFFC" ><title >c11 → n4 {:echo "Please echo 10", :type "echo", :msg_id 5}</title></rect><use xlink:href="#ahead" x="840.2380615040001" y="0" /><text text-anchor="middle" x="420.11903075200007" y="-4" transform="" filter="url(#glow)" style="fill: #fff" >echo {:echo "Please echo 10"}</text><text text-anchor="middle" x="420.11903075200007" y="-4" transform="" >echo {:echo "Please echo 10"}</text></g><g transform="translate(1020.0 1610.0) rotate(178.6360724683971) " ><rect x="0" y="-2.5" height="5" width="836.2380615040001" fill="#81BFFC" ><title >n4 → c11 {:echo "Please echo 10", :type "echo_ok", :msg_id 5, :in_reply_to 5}</title></rect><use xlink:href="#ahead" x="840.2380615040001" y="0" /><text text-anchor="middle" x="420.11903075200007" y="-4" transform="rotate(180 420.11903075200007 0)" filter="url(#glow)" style="fill: #fff" >echo_ok {:echo "Please echo 10"}</text><text text-anchor="middle" x="420.11903075200007" y="-4" transform="rotate(180 420.11903075200007 0)" >echo_ok {:echo "Please echo 10"}</text></g><g transform="translate(180.0 1650.0) rotate(1.3639275316029187) " ><rect x="0" y="-2.5" height="5" width="836.2380615040001" fill="#81BFFC" ><title >c11 → n4 {:echo "Please echo 96", :type "echo", :msg_id 6}</title></rect><use xlink:href="#ahead" x="840.2380615040001" y="0" /><text text-anchor="middle" x="420.11903075200007" y="-4" transform="" filter="url(#glow)" style="fill: #fff" >echo {:echo "Please echo 96"}</text><text text-anchor="middle" x="420.11903075200007" y="-4" transform="" >echo {:echo "Please echo 96"}</text></g><g transform="translate(1020.0 1690.0) rotate(178.6360724683971) " ><rect x="0" y="-2.5" height="5" width="836.2380615040001" fill="#81BFFC" ><title >n4 → c11 {:echo "Please echo 96", :type "echo_ok", :msg_id 6, :in_reply_to 6}</title></rect><use xlink:href="#ahead" x="840.2380615040001" y="0" /><text text-anchor="middle" x="420.11903075200007" y="-4" transform="rotate(180 420.11903075200007 0)" filter="url(#glow)" style="fill: #fff" >echo_ok {:echo "Please echo 96"}</text><text text-anchor="middle" x="420.11903075200007" y="-4" transform="rotate(180 420.11903075200007 0)" >echo_ok {:echo "Please echo 96"}</text></g><g transform="translate(300.0 1730.0) rotate(1.9091524329963763) " ><rect x="0" y="-2.5" height="5" width="596.3332407921454" fill="#81BFFC" ><title >c12 → n3 {:echo "Please echo 68", :type "echo", :msg_id 5}</title></rect><use xlink:href="#ahead" x="600.3332407921454" y="0" /><text text-anchor="middle" x="300.1666203960727" y="-4" transform="" filter="url(#glow)" style="fill: #fff" >echo {:echo "Please echo 68"}</text><text text-anchor="middle" x="300.1666203960727" y="-4" transform="" >echo {:echo "Please echo 68"}</text></g><g transform="translate(900.0 1770.0) rotate(178.0908475670036) " ><rect x="0" y="-2.5" height="5" width="596.3332407921454" fill="#81BFFC" ><title >n3 → c12 {:echo "Please echo 68", :type "echo_ok", :msg_id 5, :in_reply_to 5}</title></rect><use xlink:href="#ahead" x="600.3332407921454" y="0" /><text text-anchor="middle" x="300.1666203960727" y="-4" transform="rotate(180 300.1666203960727 0)" filter="url(#glow)" style="fill: #fff" >echo_ok {:echo "Please echo 68"}</text><text text-anchor="middle" x="300.1666203960727" y="-4" transform="rotate(180 300.1666203960727 0)" >echo_ok {:echo "Please echo 68"}</text></g><g transform="translate(180.0 1810.0) rotate(1.3639275316029187) " ><rect x="0" y="-2.5" height="5" width="836.2380615040001" fill="#81BFFC" ><title >c11 → n4 {:echo "Please echo 47", :type "echo", :msg_id 7}</title></rect><use xlink:href="#ahead" x="840.2380615040001" y="0" /><text text-anchor="middle" x="420.11903075200007" y="-4" transform="" filter="url(#glow)" style="fill: #fff" >echo {:echo "Please echo 47"}</text><text text-anchor="middle" x="420.11903075200007" y="-4" transform="" >echo {:echo "Please echo 47"}</text></g><g transform="translate(1020.0 1850.0) rotate(178.6360724683971) " ><rect x="0" y="-2.5" height="5" width="836.2380615040001" fill="#81BFFC" ><title >n4 → c11 {:echo "Please echo 47", :type "echo_ok", :msg_id 7, :in_reply_to 7}</title></rect><use xlink:href="#ahead" x="840.2380615040001" y="0" /><text text-anchor="middle" x="420.11903075200007" y="-4" transform="rotate(180 420.11903075200007 0)" filter="url(#glow)" style="fill: #fff" >echo_ok {:echo "Please echo 47"}</text><text text-anchor="middle" x="420.11903075200007" y="-4" transform="rotate(180 420.11903075200007 0)" >echo_ok {:echo "Please echo 47"}</text></g><g transform="translate(60.0 1890.0) rotate(1.9091524329963763) " ><rect x="0" y="-2.5" height="5" width="596.3332407921454" fill="#81BFFC" ><title >c10 → n1 {:echo "Please echo 15", :type "echo", :msg_id 8}</title></rect><use xlink:href="#ahead" x="600.3332407921454" y="0" /><text text-anchor="middle" x="300.1666203960727" y="-4" transform="" filter="url(#glow)" style="fill: #fff" >echo {:echo "Please echo 15"}</text><text text-anchor="middle" x="300.1666203960727" y="-4" transform="" >echo {:echo "Please echo 15"}</text></g><g transform="translate(660.0 1930.0) rotate(178.0908475670036) " ><rect x="0" y="-2.5" height="5" width="596.3332407921454" fill="#81BFFC" ><title >n1 → c10 {:echo "Please echo 15", :type "echo_ok", :msg_id 8, :in_reply_to 8}</title></rect><use xlink:href="#ahead" x="600.3332407921454" y="0" /><text text-anchor="middle" x="300.1666203960727" y="-4" transform="rotate(180 300.1666203960727 0)" filter="url(#glow)" style="fill: #fff" >echo_ok {:echo "Please echo 15"}</text><text text-anchor="middle" x="300.1666203960727" y="-4" transform="rotate(180 300.1666203960727 0)" >echo_ok {:echo "Please echo 15"}</text></g><g transform="translate(420.0 1970.0) rotate(1.5911402711945872) " ><rect x="0" y="-2.5" height="5" width="716.2777242147642" fill="#81BFFC" ><title >c13 → n5 {:echo "Please echo 67", :type "echo", :msg_id 3}</title></rect><use xlink:href="#ahead" x="720.2777242147642" y="0" /><text text-anchor="middle" x="360.1388621073821" y="-4" transform="" filter="url(#glow)" style="fill: #fff" >echo {:echo "Please echo 67"}</text><text text-anchor="middle" x="360.1388621073821" y="-4" transform="" >echo {:echo "Please echo 67"}</text></g><g transform="translate(1140.0 2010.0) rotate(178.4088597288054) " ><rect x="0" y="-2.5" height="5" width="716.2777242147642" fill="#81BFFC" ><title >n5 → c13 {:echo "Please echo 67", :type "echo_ok", :msg_id 3, :in_reply_to 3}</title></rect><use xlink:href="#ahead" x="720.2777242147642" y="0" /><text text-anchor="middle" x="360.1388621073821" y="-4" transform="rotate(180 360.1388621073821 0)" filter="url(#glow)" style="fill: #fff" >echo_ok {:echo "Please echo 67"}</text><text text-anchor="middle" x="360.1388621073821" y="-4" transform="rotate(180 360.1388621073821 0)" >echo_ok {:echo "Please echo 67"}</text></g><g transform="translate(420.0 2050.0) rotate(1.5911402711945872) " ><rect x="0" y="-2.5" height="5" width="716.2777242147642" fill="#81BFFC" ><title >c13 → n5 {:echo "Please echo 61", :type "echo", :msg_id 4}</title></rect><use xlink:href="#ahead" x="720.2777242147642" y="0" /><text text-anchor="middle" x="360.1388621073821" y="-4" transform="" filter="url(#glow)" style="fill: #fff" >echo {:echo "Please echo 61"}</text><text text-anchor="middle" x="360.1388621073821" y="-4" transform="" >echo {:echo "Please echo 61"}</text></g><g transform="translate(1140.0 2090.0) rotate(178.4088597288054) " ><rect x="0" y="-2.5" height="5" width="716.2777242147642" fill="#81BFFC" ><title >n5 → c13 {:echo "Please echo 61", :type "echo_ok", :msg_id 4, :in_reply_to 4}</title></rect><use xlink:href="#ahead" x="720.2777242147642" y="0" /><text text-anchor="middle" x="360.1388621073821" y="-4" transform="rotate(180 360.1388621073821 0)" filter="url(#glow)" style="fill: #fff" >echo_ok {:echo "Please echo 61"}</text><text text-anchor="middle" x="360.1388621073821" y="-4" transform="rotate(180 360.1388621073821 0)" >echo_ok {:echo "Please echo 61"}</text></g></g></svg>